<mxfile host="app.diagrams.net" modified="2022-04-28T14:05:25.213Z" agent="5.0 (X11; Linux x86_64) AppleWebKit/537.36 (KHTML, like Gecko) Chrome/101.0.4951.41 Safari/537.36" etag="PhgTnzerpGhTjAy7cfGD" version="17.4.6" type="github">
  <diagram id="Lk_EI4CYU3kLC5U5zO_d" name="Page-1">
    <mxGraphModel dx="1038" dy="553" grid="0" gridSize="10" guides="1" tooltips="1" connect="1" arrows="1" fold="1" page="1" pageScale="1" pageWidth="827" pageHeight="1169" background="none" math="0" shadow="0">
      <root>
        <mxCell id="0" />
        <mxCell id="1" parent="0" />
        <mxCell id="JeV1txEWlBGmem2Ouphh-2" value="User" style="swimlane;childLayout=stackLayout;horizontal=1;startSize=30;horizontalStack=0;rounded=1;fontSize=14;fontStyle=0;strokeWidth=2;resizeParent=0;resizeLast=1;shadow=1;dashed=0;align=center;gradientColor=none;" parent="1" vertex="1">
          <mxGeometry x="260" y="72" width="326" height="129" as="geometry">
            <mxRectangle x="334" y="40" width="70" height="30" as="alternateBounds" />
          </mxGeometry>
        </mxCell>
        <mxCell id="fF6uDWlk83DuF6IXU6-m-5" value="&lt;span&gt;- nome&lt;/span&gt;&lt;br&gt;&lt;span&gt;- cognome&lt;/span&gt;&lt;br&gt;&lt;span&gt;- data di nascita&lt;/span&gt;&lt;br&gt;&lt;span&gt;- sesso&lt;/span&gt;&lt;br&gt;&lt;span&gt;- email&lt;/span&gt;&lt;br&gt;&lt;span&gt;- numero di telefono&lt;/span&gt;" style="text;html=1;align=left;verticalAlign=top;resizable=0;points=[];autosize=1;strokeColor=none;fillColor=none;" parent="JeV1txEWlBGmem2Ouphh-2" vertex="1">
          <mxGeometry y="30" width="326" height="99" as="geometry" />
        </mxCell>
        <mxCell id="l8wX_0Qu8CBymqKlJUEb-30" style="edgeStyle=orthogonalEdgeStyle;rounded=0;orthogonalLoop=1;jettySize=auto;html=1;exitX=0.5;exitY=0;exitDx=0;exitDy=0;entryX=0.5;entryY=1;entryDx=0;entryDy=0;endArrow=none;endFill=0;" parent="1" source="JeV1txEWlBGmem2Ouphh-8" target="JeV1txEWlBGmem2Ouphh-2" edge="1">
          <mxGeometry relative="1" as="geometry" />
        </mxCell>
        <mxCell id="JeV1txEWlBGmem2Ouphh-8" value="UtenteRegistrato" style="swimlane;childLayout=stackLayout;horizontal=1;startSize=30;horizontalStack=0;rounded=1;fontSize=14;fontStyle=0;strokeWidth=2;resizeParent=0;resizeLast=1;shadow=1;dashed=0;align=center;gradientColor=none;" parent="1" vertex="1">
          <mxGeometry x="143" y="266" width="160" height="183" as="geometry">
            <mxRectangle x="240" y="160" width="180" height="30" as="alternateBounds" />
          </mxGeometry>
        </mxCell>
        <mxCell id="MB48RITWyxrm8_n9HD4J-2" value="- password&lt;br&gt;- id univoco&lt;br&gt;&lt;div&gt;&lt;br&gt;&lt;/div&gt;" style="text;html=1;align=left;verticalAlign=top;resizable=0;points=[];autosize=1;strokeColor=none;fillColor=none;" parent="JeV1txEWlBGmem2Ouphh-8" vertex="1">
          <mxGeometry y="30" width="160" height="153" as="geometry" />
        </mxCell>
        <mxCell id="l8wX_0Qu8CBymqKlJUEb-31" style="edgeStyle=orthogonalEdgeStyle;rounded=0;orthogonalLoop=1;jettySize=auto;html=1;exitX=0.5;exitY=0;exitDx=0;exitDy=0;entryX=0.5;entryY=1;entryDx=0;entryDy=0;endArrow=none;endFill=0;" parent="1" source="JeV1txEWlBGmem2Ouphh-9" target="JeV1txEWlBGmem2Ouphh-2" edge="1">
          <mxGeometry relative="1" as="geometry" />
        </mxCell>
        <mxCell id="JeV1txEWlBGmem2Ouphh-9" value="Receptionist" style="swimlane;childLayout=stackLayout;horizontal=1;startSize=30;horizontalStack=0;rounded=1;fontSize=14;fontStyle=0;strokeWidth=2;resizeParent=0;resizeLast=1;shadow=1;dashed=0;align=center;gradientColor=none;" parent="1" vertex="1">
          <mxGeometry x="343" y="266" width="160" height="210" as="geometry" />
        </mxCell>
        <mxCell id="MB48RITWyxrm8_n9HD4J-6" value="- data di assunzione&lt;br&gt;- note&lt;br&gt;- username&lt;br&gt;- password&lt;br&gt;- id univoco" style="text;html=1;align=left;verticalAlign=top;resizable=0;points=[];autosize=1;strokeColor=none;fillColor=none;" parent="JeV1txEWlBGmem2Ouphh-9" vertex="1">
          <mxGeometry y="30" width="160" height="180" as="geometry" />
        </mxCell>
        <mxCell id="l8wX_0Qu8CBymqKlJUEb-32" style="edgeStyle=orthogonalEdgeStyle;rounded=0;orthogonalLoop=1;jettySize=auto;html=1;exitX=0.5;exitY=0;exitDx=0;exitDy=0;entryX=0.5;entryY=1;entryDx=0;entryDy=0;endArrow=none;endFill=0;" parent="1" source="JeV1txEWlBGmem2Ouphh-10" target="JeV1txEWlBGmem2Ouphh-2" edge="1">
          <mxGeometry relative="1" as="geometry" />
        </mxCell>
        <mxCell id="JeV1txEWlBGmem2Ouphh-10" value="Admin" style="swimlane;childLayout=stackLayout;horizontal=1;startSize=30;horizontalStack=0;rounded=1;fontSize=14;fontStyle=0;strokeWidth=2;resizeParent=0;resizeLast=1;shadow=1;dashed=0;align=center;gradientColor=none;" parent="1" vertex="1">
          <mxGeometry x="543" y="266" width="160" height="210" as="geometry" />
        </mxCell>
        <mxCell id="MB48RITWyxrm8_n9HD4J-7" value="- contatto emergenza&lt;br&gt;- username&lt;br&gt;- password" style="text;html=1;align=left;verticalAlign=top;resizable=0;points=[];autosize=1;strokeColor=none;fillColor=none;" parent="JeV1txEWlBGmem2Ouphh-10" vertex="1">
          <mxGeometry y="30" width="160" height="180" as="geometry" />
        </mxCell>
        <mxCell id="JeV1txEWlBGmem2Ouphh-17" value="CameraAlloggio" style="swimlane;childLayout=stackLayout;horizontal=1;startSize=30;horizontalStack=0;rounded=1;fontSize=14;fontStyle=0;strokeWidth=2;resizeParent=0;resizeLast=1;shadow=1;dashed=0;align=center;gradientColor=none;" parent="1" vertex="1">
          <mxGeometry x="476" y="831" width="306" height="160" as="geometry" />
        </mxCell>
        <mxCell id="l8wX_0Qu8CBymqKlJUEb-41" value="- numero&lt;br&gt;- tipo&amp;nbsp;&lt;br&gt;- piano&lt;br&gt;- categoria&lt;br&gt;- dettagli&lt;br&gt;- vista&lt;br&gt;- stato (manutenzione/vendibile)" style="text;html=1;align=left;verticalAlign=top;resizable=0;points=[];autosize=1;strokeColor=none;fillColor=none;" parent="JeV1txEWlBGmem2Ouphh-17" vertex="1">
          <mxGeometry y="30" width="306" height="130" as="geometry" />
        </mxCell>
        <mxCell id="l8wX_0Qu8CBymqKlJUEb-38" style="edgeStyle=orthogonalEdgeStyle;rounded=0;orthogonalLoop=1;jettySize=auto;html=1;entryX=0.5;entryY=0;entryDx=0;entryDy=0;endArrow=none;endFill=0;" parent="1" source="JeV1txEWlBGmem2Ouphh-18" target="JeV1txEWlBGmem2Ouphh-17" edge="1">
          <mxGeometry relative="1" as="geometry" />
        </mxCell>
        <mxCell id="JeV1txEWlBGmem2Ouphh-18" value="CalendarioDisposnibilita&#39;" style="swimlane;childLayout=stackLayout;horizontal=1;startSize=30;horizontalStack=0;rounded=1;fontSize=14;fontStyle=0;strokeWidth=2;resizeParent=0;resizeLast=1;shadow=1;dashed=0;align=center;gradientColor=none;" parent="1" vertex="1">
          <mxGeometry x="449" y="631" width="360" height="120" as="geometry">
            <mxRectangle x="440" y="520" width="180" height="30" as="alternateBounds" />
          </mxGeometry>
        </mxCell>
        <mxCell id="l8wX_0Qu8CBymqKlJUEb-42" value="- camere disponibili&lt;br&gt;- camere occupate&lt;br&gt;- prezzo giornaliero" style="text;html=1;align=left;verticalAlign=top;resizable=0;points=[];autosize=1;strokeColor=none;fillColor=none;" parent="JeV1txEWlBGmem2Ouphh-18" vertex="1">
          <mxGeometry y="30" width="360" height="90" as="geometry" />
        </mxCell>
        <mxCell id="JeV1txEWlBGmem2Ouphh-80" value="Prenotazione" style="swimlane;childLayout=stackLayout;horizontal=1;startSize=30;horizontalStack=0;rounded=1;fontSize=14;fontStyle=0;strokeWidth=2;resizeParent=0;resizeLast=1;shadow=1;dashed=0;align=center;gradientColor=none;" parent="1" vertex="1">
          <mxGeometry x="89" y="611" width="225" height="140" as="geometry" />
        </mxCell>
        <mxCell id="l8wX_0Qu8CBymqKlJUEb-43" value="- data check in&lt;br&gt;- data check out&lt;br&gt;- data prenotazione&lt;br&gt;- stato (attiva/cancellata/overbooking)&lt;br&gt;- numero adulti&lt;br&gt;- numero bimbi&lt;br&gt;- eta&#39; bimbi" style="text;html=1;align=left;verticalAlign=top;resizable=0;points=[];autosize=1;strokeColor=none;fillColor=none;" parent="JeV1txEWlBGmem2Ouphh-80" vertex="1">
          <mxGeometry y="30" width="225" height="110" as="geometry" />
        </mxCell>
        <mxCell id="l8wX_0Qu8CBymqKlJUEb-3" value="" style="triangle;whiteSpace=wrap;html=1;direction=south;fillColor=#000000;" parent="1" vertex="1">
          <mxGeometry x="229" y="506" width="10" height="20" as="geometry" />
        </mxCell>
        <mxCell id="l8wX_0Qu8CBymqKlJUEb-4" value="effettua" style="text;html=1;align=center;verticalAlign=middle;resizable=0;points=[];autosize=1;strokeColor=none;fillColor=none;" parent="1" vertex="1">
          <mxGeometry x="229" y="506" width="60" height="20" as="geometry" />
        </mxCell>
        <mxCell id="l8wX_0Qu8CBymqKlJUEb-45" style="edgeStyle=orthogonalEdgeStyle;rounded=0;orthogonalLoop=1;jettySize=auto;html=1;exitX=0.5;exitY=0;exitDx=0;exitDy=0;entryX=0.532;entryY=1.044;entryDx=0;entryDy=0;entryPerimeter=0;endArrow=none;endFill=0;" parent="1" source="l8wX_0Qu8CBymqKlJUEb-11" target="l8wX_0Qu8CBymqKlJUEb-43" edge="1">
          <mxGeometry relative="1" as="geometry" />
        </mxCell>
        <mxCell id="l8wX_0Qu8CBymqKlJUEb-11" value="MetodoPagamento" style="swimlane;childLayout=stackLayout;horizontal=1;startSize=30;horizontalStack=0;rounded=1;fontSize=14;fontStyle=0;strokeWidth=2;resizeParent=0;resizeLast=1;shadow=1;dashed=0;align=center;gradientColor=none;" parent="1" vertex="1">
          <mxGeometry x="56" y="831" width="306" height="60" as="geometry" />
        </mxCell>
        <mxCell id="l8wX_0Qu8CBymqKlJUEb-16" style="edgeStyle=orthogonalEdgeStyle;rounded=0;orthogonalLoop=1;jettySize=auto;html=1;exitX=0.5;exitY=0;exitDx=0;exitDy=0;endArrow=none;endFill=0;" parent="1" source="l8wX_0Qu8CBymqKlJUEb-12" edge="1">
          <mxGeometry relative="1" as="geometry">
            <mxPoint x="79" y="891" as="targetPoint" />
          </mxGeometry>
        </mxCell>
        <mxCell id="l8wX_0Qu8CBymqKlJUEb-12" value="CartaCredito" style="swimlane;childLayout=stackLayout;horizontal=1;startSize=30;horizontalStack=0;rounded=1;fontSize=14;fontStyle=0;strokeWidth=2;resizeParent=0;resizeLast=1;shadow=1;dashed=0;align=center;gradientColor=none;" parent="1" vertex="1">
          <mxGeometry x="19" y="951" width="120" height="200" as="geometry" />
        </mxCell>
        <mxCell id="l8wX_0Qu8CBymqKlJUEb-39" value="- nome titolare&lt;br&gt;- cognome titolare&lt;br&gt;- data scadenza&lt;br&gt;- numero&lt;br&gt;&lt;div&gt;&lt;span&gt;- ccv&lt;/span&gt;&lt;/div&gt;" style="text;html=1;align=left;verticalAlign=top;resizable=0;points=[];autosize=1;strokeColor=none;fillColor=none;" parent="l8wX_0Qu8CBymqKlJUEb-12" vertex="1">
          <mxGeometry y="30" width="120" height="170" as="geometry" />
        </mxCell>
        <mxCell id="l8wX_0Qu8CBymqKlJUEb-17" style="edgeStyle=orthogonalEdgeStyle;rounded=0;orthogonalLoop=1;jettySize=auto;html=1;exitX=0.5;exitY=0;exitDx=0;exitDy=0;endArrow=none;endFill=0;" parent="1" source="l8wX_0Qu8CBymqKlJUEb-13" edge="1">
          <mxGeometry relative="1" as="geometry">
            <mxPoint x="214" y="891" as="targetPoint" />
          </mxGeometry>
        </mxCell>
        <mxCell id="l8wX_0Qu8CBymqKlJUEb-13" value="Bonifico" style="swimlane;childLayout=stackLayout;horizontal=1;startSize=30;horizontalStack=0;rounded=1;fontSize=14;fontStyle=0;strokeWidth=2;resizeParent=0;resizeLast=1;shadow=1;dashed=0;align=center;gradientColor=none;" parent="1" vertex="1">
          <mxGeometry x="154" y="951" width="120" height="200" as="geometry" />
        </mxCell>
        <mxCell id="l8wX_0Qu8CBymqKlJUEb-40" value="- nome titolare&lt;br&gt;- cognome titolare&lt;br&gt;- casuale" style="text;html=1;align=left;verticalAlign=top;resizable=0;points=[];autosize=1;strokeColor=none;fillColor=none;" parent="l8wX_0Qu8CBymqKlJUEb-13" vertex="1">
          <mxGeometry y="30" width="120" height="170" as="geometry" />
        </mxCell>
        <mxCell id="l8wX_0Qu8CBymqKlJUEb-18" style="edgeStyle=orthogonalEdgeStyle;rounded=0;orthogonalLoop=1;jettySize=auto;html=1;exitX=0.5;exitY=0;exitDx=0;exitDy=0;endArrow=none;endFill=0;" parent="1" source="l8wX_0Qu8CBymqKlJUEb-14" edge="1">
          <mxGeometry relative="1" as="geometry">
            <mxPoint x="349" y="891" as="targetPoint" />
          </mxGeometry>
        </mxCell>
        <mxCell id="l8wX_0Qu8CBymqKlJUEb-14" value="InStruttura" style="swimlane;childLayout=stackLayout;horizontal=1;startSize=30;horizontalStack=0;rounded=1;fontSize=14;fontStyle=0;strokeWidth=2;resizeParent=0;resizeLast=1;shadow=1;dashed=0;align=center;gradientColor=none;" parent="1" vertex="1">
          <mxGeometry x="289" y="951" width="120" height="200" as="geometry" />
        </mxCell>
        <mxCell id="l8wX_0Qu8CBymqKlJUEb-20" style="edgeStyle=orthogonalEdgeStyle;rounded=0;orthogonalLoop=1;jettySize=auto;html=1;entryX=0.223;entryY=0;entryDx=0;entryDy=0;entryPerimeter=0;endArrow=none;endFill=0;" parent="1" source="MB48RITWyxrm8_n9HD4J-6" target="JeV1txEWlBGmem2Ouphh-18" edge="1">
          <mxGeometry relative="1" as="geometry" />
        </mxCell>
        <mxCell id="l8wX_0Qu8CBymqKlJUEb-21" value="" style="triangle;whiteSpace=wrap;html=1;direction=south;fillColor=#000000;" parent="1" vertex="1">
          <mxGeometry x="433" y="506" width="10" height="20" as="geometry" />
        </mxCell>
        <mxCell id="l8wX_0Qu8CBymqKlJUEb-22" value="gestisce" style="text;html=1;align=center;verticalAlign=middle;resizable=0;points=[];autosize=1;strokeColor=none;fillColor=none;" parent="1" vertex="1">
          <mxGeometry x="443" y="506" width="60" height="20" as="geometry" />
        </mxCell>
        <mxCell id="l8wX_0Qu8CBymqKlJUEb-25" value="" style="triangle;whiteSpace=wrap;html=1;direction=south;fillColor=#000000;" parent="1" vertex="1">
          <mxGeometry x="229" y="781" width="10" height="20" as="geometry" />
        </mxCell>
        <mxCell id="l8wX_0Qu8CBymqKlJUEb-26" value="pagata tramite" style="text;html=1;align=center;verticalAlign=middle;resizable=0;points=[];autosize=1;strokeColor=none;fillColor=none;" parent="1" vertex="1">
          <mxGeometry x="239" y="781" width="90" height="20" as="geometry" />
        </mxCell>
        <mxCell id="l8wX_0Qu8CBymqKlJUEb-33" value="" style="triangle;whiteSpace=wrap;html=1;direction=south;fillColor=#000000;rotation=-90;" parent="1" vertex="1">
          <mxGeometry x="352" y="661" width="10" height="20" as="geometry" />
        </mxCell>
        <mxCell id="l8wX_0Qu8CBymqKlJUEb-34" value="riferita_a" style="text;html=1;align=center;verticalAlign=middle;resizable=0;points=[];autosize=1;strokeColor=none;fillColor=none;" parent="1" vertex="1">
          <mxGeometry x="362" y="661" width="60" height="20" as="geometry" />
        </mxCell>
        <mxCell id="l8wX_0Qu8CBymqKlJUEb-36" value="" style="triangle;whiteSpace=wrap;html=1;direction=south;fillColor=#000000;" parent="1" vertex="1">
          <mxGeometry x="639" y="781" width="10" height="20" as="geometry" />
        </mxCell>
        <mxCell id="l8wX_0Qu8CBymqKlJUEb-37" value="controlla" style="text;html=1;align=center;verticalAlign=middle;resizable=0;points=[];autosize=1;strokeColor=none;fillColor=none;" parent="1" vertex="1">
          <mxGeometry x="649" y="781" width="60" height="20" as="geometry" />
        </mxCell>
        <mxCell id="l8wX_0Qu8CBymqKlJUEb-48" style="edgeStyle=orthogonalEdgeStyle;rounded=0;orthogonalLoop=1;jettySize=auto;html=1;entryX=0.001;entryY=0.396;entryDx=0;entryDy=0;entryPerimeter=0;endArrow=none;endFill=0;" parent="1" source="l8wX_0Qu8CBymqKlJUEb-43" target="l8wX_0Qu8CBymqKlJUEb-42" edge="1">
          <mxGeometry relative="1" as="geometry" />
        </mxCell>
        <mxCell id="l8wX_0Qu8CBymqKlJUEb-53" value="0..*" style="text;html=1;align=center;verticalAlign=middle;resizable=0;points=[];autosize=1;strokeColor=none;fillColor=none;" parent="1" vertex="1">
          <mxGeometry x="224" y="452" width="28" height="18" as="geometry" />
        </mxCell>
        <mxCell id="l8wX_0Qu8CBymqKlJUEb-54" value="0..*" style="text;html=1;align=center;verticalAlign=middle;resizable=0;points=[];autosize=1;strokeColor=none;fillColor=none;" parent="1" vertex="1">
          <mxGeometry x="224" y="591" width="28" height="18" as="geometry" />
        </mxCell>
        <mxCell id="l8wX_0Qu8CBymqKlJUEb-55" value="1..*" style="text;html=1;align=center;verticalAlign=middle;resizable=0;points=[];autosize=1;strokeColor=none;fillColor=none;" parent="1" vertex="1">
          <mxGeometry x="424" y="480" width="28" height="18" as="geometry" />
        </mxCell>
        <mxCell id="l8wX_0Qu8CBymqKlJUEb-56" value="1" style="text;html=1;align=center;verticalAlign=middle;resizable=0;points=[];autosize=1;strokeColor=none;fillColor=none;" parent="1" vertex="1">
          <mxGeometry x="530" y="611" width="16" height="18" as="geometry" />
        </mxCell>
        <mxCell id="l8wX_0Qu8CBymqKlJUEb-57" value="0..*" style="text;html=1;align=center;verticalAlign=middle;resizable=0;points=[];autosize=1;strokeColor=none;fillColor=none;" parent="1" vertex="1">
          <mxGeometry x="181" y="751" width="28" height="18" as="geometry" />
        </mxCell>
        <mxCell id="l8wX_0Qu8CBymqKlJUEb-58" value="1..*" style="text;html=1;align=center;verticalAlign=middle;resizable=0;points=[];autosize=1;strokeColor=none;fillColor=none;" parent="1" vertex="1">
          <mxGeometry x="183" y="813" width="28" height="18" as="geometry" />
        </mxCell>
        <mxCell id="l8wX_0Qu8CBymqKlJUEb-59" value="0..*" style="text;html=1;align=center;verticalAlign=middle;resizable=0;points=[];autosize=1;strokeColor=none;fillColor=none;" parent="1" vertex="1">
          <mxGeometry x="314" y="678" width="28" height="18" as="geometry" />
        </mxCell>
        <mxCell id="l8wX_0Qu8CBymqKlJUEb-60" value="1" style="text;html=1;align=center;verticalAlign=middle;resizable=0;points=[];autosize=1;strokeColor=none;fillColor=none;" parent="1" vertex="1">
          <mxGeometry x="433" y="678" width="16" height="18" as="geometry" />
        </mxCell>
        <mxCell id="l8wX_0Qu8CBymqKlJUEb-61" value="1" style="text;html=1;align=center;verticalAlign=middle;resizable=0;points=[];autosize=1;strokeColor=none;fillColor=none;" parent="1" vertex="1">
          <mxGeometry x="628" y="753" width="16" height="18" as="geometry" />
        </mxCell>
        <mxCell id="l8wX_0Qu8CBymqKlJUEb-62" value="*" style="text;html=1;align=center;verticalAlign=middle;resizable=0;points=[];autosize=1;strokeColor=none;fillColor=none;" parent="1" vertex="1">
          <mxGeometry x="628.5" y="813" width="15" height="18" as="geometry" />
        </mxCell>
        <mxCell id="fF6uDWlk83DuF6IXU6-m-2" style="edgeStyle=orthogonalEdgeStyle;rounded=0;orthogonalLoop=1;jettySize=auto;html=1;entryX=0.593;entryY=-0.001;entryDx=0;entryDy=0;entryPerimeter=0;endArrow=none;endFill=0;" parent="1" source="MB48RITWyxrm8_n9HD4J-2" target="JeV1txEWlBGmem2Ouphh-80" edge="1">
          <mxGeometry relative="1" as="geometry" />
        </mxCell>
      </root>
    </mxGraphModel>
  </diagram>
</mxfile>
